<mxfile host="app.diagrams.net" modified="2023-11-17T23:56:20.419Z" agent="Mozilla/5.0 (Windows NT 10.0; Win64; x64) AppleWebKit/537.36 (KHTML, like Gecko) Chrome/119.0.0.0 Safari/537.36" etag="jLCvndwmUH4pYbXLonEo" version="22.1.3" type="device">
  <diagram name="Página-1" id="xznswoqqvFpvNOPJDNXw">
    <mxGraphModel dx="1877" dy="1735" grid="1" gridSize="10" guides="1" tooltips="1" connect="1" arrows="1" fold="1" page="1" pageScale="1" pageWidth="827" pageHeight="1169" math="0" shadow="0">
      <root>
        <mxCell id="0" />
        <mxCell id="1" parent="0" />
        <mxCell id="v8mewSuBFv4Z4O5CX5IX-11" value="" style="rounded=0;orthogonalLoop=1;jettySize=auto;html=1;strokeColor=default;edgeStyle=orthogonalEdgeStyle;endArrow=none;endFill=0;" parent="1" source="v8mewSuBFv4Z4O5CX5IX-1" target="v8mewSuBFv4Z4O5CX5IX-6" edge="1">
          <mxGeometry relative="1" as="geometry" />
        </mxCell>
        <mxCell id="v8mewSuBFv4Z4O5CX5IX-12" style="edgeStyle=orthogonalEdgeStyle;rounded=0;orthogonalLoop=1;jettySize=auto;html=1;exitX=0.5;exitY=1;exitDx=0;exitDy=0;endArrow=none;endFill=0;" parent="1" source="v8mewSuBFv4Z4O5CX5IX-1" target="v8mewSuBFv4Z4O5CX5IX-7" edge="1">
          <mxGeometry relative="1" as="geometry" />
        </mxCell>
        <mxCell id="v8mewSuBFv4Z4O5CX5IX-13" style="edgeStyle=orthogonalEdgeStyle;rounded=0;orthogonalLoop=1;jettySize=auto;html=1;exitX=0.5;exitY=1;exitDx=0;exitDy=0;entryX=0.5;entryY=0;entryDx=0;entryDy=0;endArrow=none;endFill=0;" parent="1" source="v8mewSuBFv4Z4O5CX5IX-1" target="v8mewSuBFv4Z4O5CX5IX-5" edge="1">
          <mxGeometry relative="1" as="geometry" />
        </mxCell>
        <mxCell id="v8mewSuBFv4Z4O5CX5IX-14" style="edgeStyle=orthogonalEdgeStyle;rounded=0;orthogonalLoop=1;jettySize=auto;html=1;exitX=0.5;exitY=1;exitDx=0;exitDy=0;entryX=0.5;entryY=0;entryDx=0;entryDy=0;endArrow=none;endFill=0;" parent="1" source="v8mewSuBFv4Z4O5CX5IX-1" target="v8mewSuBFv4Z4O5CX5IX-2" edge="1">
          <mxGeometry relative="1" as="geometry" />
        </mxCell>
        <mxCell id="v8mewSuBFv4Z4O5CX5IX-1" value="Página Principal" style="rounded=0;whiteSpace=wrap;html=1;" parent="1" vertex="1">
          <mxGeometry x="280" y="40" width="210" height="40" as="geometry" />
        </mxCell>
        <mxCell id="v8mewSuBFv4Z4O5CX5IX-2" value="Registrarte" style="rounded=0;whiteSpace=wrap;html=1;" parent="1" vertex="1">
          <mxGeometry x="-10" y="120" width="170" height="40" as="geometry" />
        </mxCell>
        <mxCell id="v8mewSuBFv4Z4O5CX5IX-5" value="Iniciar Sesión" style="rounded=0;whiteSpace=wrap;html=1;" parent="1" vertex="1">
          <mxGeometry x="200" y="120" width="170" height="40" as="geometry" />
        </mxCell>
        <mxCell id="v8mewSuBFv4Z4O5CX5IX-6" value="Tienda" style="rounded=0;whiteSpace=wrap;html=1;" parent="1" vertex="1">
          <mxGeometry x="400" y="120" width="170" height="40" as="geometry" />
        </mxCell>
        <mxCell id="v8mewSuBFv4Z4O5CX5IX-7" value="Carrito" style="rounded=0;whiteSpace=wrap;html=1;" parent="1" vertex="1">
          <mxGeometry x="600" y="120" width="170" height="40" as="geometry" />
        </mxCell>
        <mxCell id="v8mewSuBFv4Z4O5CX5IX-15" value="" style="endArrow=none;html=1;rounded=0;" parent="1" edge="1">
          <mxGeometry width="50" height="50" relative="1" as="geometry">
            <mxPoint x="-110" y="200" as="sourcePoint" />
            <mxPoint x="870" y="200" as="targetPoint" />
          </mxGeometry>
        </mxCell>
        <mxCell id="v8mewSuBFv4Z4O5CX5IX-17" value="&lt;b&gt;Sección Pública&lt;/b&gt;" style="text;html=1;strokeColor=none;fillColor=none;align=center;verticalAlign=middle;whiteSpace=wrap;rounded=0;" parent="1" vertex="1">
          <mxGeometry x="640" y="-30" width="130" height="30" as="geometry" />
        </mxCell>
        <mxCell id="v8mewSuBFv4Z4O5CX5IX-23" style="edgeStyle=orthogonalEdgeStyle;rounded=0;orthogonalLoop=1;jettySize=auto;html=1;exitX=0.5;exitY=1;exitDx=0;exitDy=0;entryX=0.5;entryY=0;entryDx=0;entryDy=0;endArrow=none;endFill=0;" parent="1" source="v8mewSuBFv4Z4O5CX5IX-18" target="v8mewSuBFv4Z4O5CX5IX-21" edge="1">
          <mxGeometry relative="1" as="geometry" />
        </mxCell>
        <mxCell id="v8mewSuBFv4Z4O5CX5IX-18" value="Perfil" style="rounded=0;whiteSpace=wrap;html=1;" parent="1" vertex="1">
          <mxGeometry x="300" y="240" width="160" height="40" as="geometry" />
        </mxCell>
        <mxCell id="v8mewSuBFv4Z4O5CX5IX-21" value="Pedidos Antiguos" style="rounded=0;whiteSpace=wrap;html=1;" parent="1" vertex="1">
          <mxGeometry x="300" y="330" width="160" height="40" as="geometry" />
        </mxCell>
        <mxCell id="v8mewSuBFv4Z4O5CX5IX-25" value="&lt;b&gt;Sección Privada&lt;/b&gt;" style="text;html=1;strokeColor=none;fillColor=none;align=center;verticalAlign=middle;whiteSpace=wrap;rounded=0;" parent="1" vertex="1">
          <mxGeometry x="650" y="240" width="130" height="30" as="geometry" />
        </mxCell>
      </root>
    </mxGraphModel>
  </diagram>
</mxfile>
